<svg width="19" height="22" viewBox="0 0 19 22" fill="none" xmlns="http://www.w3.org/2000/svg">
<path d="M17.0594 4.3201H13.2078C13.023 3.38693 12.5203 2.54678 11.7852 1.94295C11.0502 1.33913 10.1284 1.00906 9.17711 1.00906C8.22585 1.00906 7.30406 1.33913 6.56901 1.94295C5.83396 2.54678 5.3312 3.38693 5.1465 4.3201H1.29477C1.17463 4.3201 1.05942 4.36783 0.974476 4.45278C0.889528 4.53772 0.841803 4.65293 0.841797 4.77307V20.538C0.841781 20.5975 0.853487 20.6563 0.876246 20.7114C0.899004 20.7663 0.93237 20.8163 0.974435 20.8583C1.0165 20.9004 1.06644 20.9337 1.12141 20.9565C1.17637 20.9792 1.23528 20.9909 1.29477 20.9909H17.0594C17.1189 20.9909 17.1779 20.9792 17.2328 20.9565C17.2878 20.9337 17.3377 20.9004 17.3798 20.8583C17.4218 20.8163 17.4552 20.7663 17.478 20.7114C17.5008 20.6563 17.5124 20.5975 17.5124 20.538V4.77307C17.5124 4.65293 17.4647 4.53772 17.3797 4.45278C17.2948 4.36783 17.1796 4.3201 17.0594 4.3201ZM9.17711 1.915C9.88705 1.91627 10.5765 2.1531 11.1374 2.58836C11.6982 3.02362 12.0988 3.63269 12.2762 4.3201H6.07802C6.25548 3.63269 6.65602 3.02362 7.21688 2.58836C7.77773 2.1531 8.46718 1.91627 9.17711 1.915ZM16.6065 20.085H1.74774V5.22604H5.06718V7.09565C5.06718 7.21579 5.1149 7.331 5.19985 7.41595C5.2848 7.5009 5.40002 7.54862 5.52015 7.54862C5.64029 7.54862 5.7555 7.5009 5.84045 7.41595C5.9254 7.331 5.97312 7.21579 5.97312 7.09565V5.22604H12.3811V7.09565C12.3811 7.21579 12.4288 7.331 12.5138 7.41595C12.5987 7.5009 12.7139 7.54862 12.8341 7.54862C12.9542 7.54862 13.0694 7.5009 13.1544 7.41595C13.2393 7.331 13.2871 7.21579 13.2871 7.09565V5.22604H16.6065V20.085Z" fill="#FFFDFD" stroke="white" stroke-width="0.6"/>
</svg>
