<svg width="19" height="22" viewBox="0 0 19 22" fill="none" xmlns="http://www.w3.org/2000/svg">
<path d="M17.8556 3.64544H13.6149C13.4115 2.61803 12.858 1.69302 12.0487 1.02821C11.2394 0.363404 10.2245 0 9.17716 0C8.12983 0 7.11494 0.363404 6.30565 1.02821C5.49636 1.69302 4.94282 2.61803 4.73947 3.64544H0.498722C0.366454 3.64544 0.239606 3.69799 0.146079 3.79152C0.0525524 3.88504 6.62973e-06 4.01189 1.68672e-08 4.14416V21.5013C-1.70192e-05 21.5668 0.0128711 21.6316 0.0379282 21.6922C0.0629853 21.7527 0.0997203 21.8077 0.146034 21.854C0.192348 21.9003 0.247334 21.937 0.307849 21.9621C0.368364 21.9871 0.433224 22 0.498722 22H17.8556C17.9211 22 17.986 21.9871 18.0465 21.9621C18.107 21.937 18.162 21.9003 18.2083 21.854C18.2546 21.8077 18.2913 21.7527 18.3164 21.6922C18.3415 21.6316 18.3543 21.5668 18.3543 21.5013V4.14416C18.3543 4.01189 18.3018 3.88504 18.2082 3.79152C18.1147 3.69799 17.9879 3.64544 17.8556 3.64544ZM9.17716 0.997439C9.9588 0.998833 10.7179 1.25958 11.3354 1.7388C11.9529 2.21802 12.3939 2.88861 12.5893 3.64544H5.76507C5.96045 2.88861 6.40145 2.21802 7.01895 1.7388C7.63645 1.25958 8.39553 0.998833 9.17716 0.997439ZM17.3569 21.0026H0.997443V4.64288H4.65214V6.70132C4.65214 6.83359 4.70468 6.96044 4.79821 7.05397C4.89174 7.1475 5.01859 7.20004 5.15086 7.20004C5.28313 7.20004 5.40998 7.1475 5.50351 7.05397C5.59704 6.96044 5.64958 6.83359 5.64958 6.70132V4.64288H12.7047V6.70132C12.7047 6.83359 12.7573 6.96044 12.8508 7.05397C12.9443 7.1475 13.0712 7.20004 13.2035 7.20004C13.3357 7.20004 13.4626 7.1475 13.5561 7.05397C13.6496 6.96044 13.7022 6.83359 13.7022 6.70132V4.64288H17.3569V21.0026Z" fill="black"/>
</svg>
