<svg width="21" height="22" viewBox="0 0 21 22" fill="none" xmlns="http://www.w3.org/2000/svg">
<path d="M0.353394 20.5989C0.353394 21.1056 0.753393 21.5056 1.26006 21.5056H19.74C20.2467 21.5056 20.6467 21.1056 20.6467 20.5989C20.62 15.6656 16.5934 11.6389 11.6601 11.6389H9.34006C4.38006 11.6389 0.353394 15.6656 0.353394 20.5989ZM9.31339 12.1722H11.6334C16.3001 12.1722 20.0867 15.9589 20.0867 20.5989C20.0867 20.8122 19.9267 20.9722 19.7134 20.9722H1.26006C1.04673 20.9722 0.886727 20.8122 0.886727 20.5989C0.886727 15.9589 4.67339 12.1722 9.31339 12.1722Z" fill="black" stroke="black" stroke-width="0.5"/>
<path d="M14.4868 7.63891V5.50558C14.4868 3.29225 12.7001 1.50558 10.4868 1.50558C8.27348 1.50558 6.48682 3.29225 6.48682 5.50558V7.63891C6.48682 9.85225 8.27348 11.6389 10.4868 11.6389C12.7001 11.6389 14.4868 9.85225 14.4868 7.63891ZM7.02015 7.63891V5.50558C7.02015 3.58558 8.56682 2.03892 10.4868 2.03892C12.4068 2.03892 13.9535 3.58558 13.9535 5.50558V7.63891C13.9535 9.55891 12.4068 11.1056 10.4868 11.1056C8.56682 11.1056 7.02015 9.55891 7.02015 7.63891Z" fill="black" stroke="black" stroke-width="0.5"/>
</svg>
