<svg xmlns="http://www.w3.org/2000/svg" width="20" height="16" viewBox="0 0 20 16"><g fill="none" fill-rule="evenodd"><g><g><g><g><path fill="#FFF" d="M.827 3.937L2.416.847c.149-.298.576-.294.72.006L4.816 4.32l3.81.587c.329.051.457.456.217.687L6.062 8.26l.623 3.802c.054.328-.293.576-.587.418L3.08 10.752" transform="translate(-1015 -1319) translate(824 1315) translate(191 4) translate(10 .874)"></path><path stroke="#282C3F" stroke-linecap="round" stroke-linejoin="round" d="M.827 3.937L2.416.847c.149-.298.576-.294.72.006L4.816 4.32l3.81.587c.329.051.457.456.217.687L6.062 8.26l.623 3.802c.054.328-.293.576-.587.418L3.08 10.752" transform="translate(-1015 -1319) translate(824 1315) translate(191 4) translate(10 .874)"></path></g><path fill="#FFF" d="M7.517 2.933L9.32 6.655l4.09.629c.326.05.454.454.214.683l-2.982 2.862.667 4.08c.054.327-.29.573-.582.417L7.08 13.373 3.405 15.27c-.294.15-.635-.1-.576-.426l.73-4.07L.62 7.87c-.236-.233-.102-.634.226-.68l4.098-.567 1.858-3.694c.15-.296.572-.293.716.005" transform="translate(-1015 -1319) translate(824 1315) translate(191 4)"></path><path stroke="#282C3F" stroke-linecap="round" stroke-linejoin="round" d="M7.517 2.933L9.32 6.655l4.09.629c.326.05.454.454.214.683l-2.982 2.862.667 4.08c.054.327-.29.573-.582.417L7.08 13.373 3.405 15.27c-.294.15-.635-.1-.576-.426l.73-4.07L.62 7.87c-.236-.233-.102-.634.226-.68l4.098-.567 1.858-3.694c.15-.296.572-.293.716.005z" transform="translate(-1015 -1319) translate(824 1315) translate(191 4)"></path></g></g></g></g></svg>