<svg width="23" height="23" viewBox="0 0 23 23" fill="none" xmlns="http://www.w3.org/2000/svg">
<path d="M16.5003 2C16.4512 2 16.403 2 16.3538 2.00095V2.00189C14.7894 2.03687 13.258 2.7118 12.049 3.92365L11.497 4.48043L10.944 3.9246C9.73494 2.71274 8.20364 2.03875 6.63915 2.00283L6.6401 2.00189C5.07566 1.96691 3.47532 2.57096 2.12548 3.92365H2.12453C2.11981 3.92743 2.11603 3.93216 2.1113 3.93689C0.703774 5.50512 0.261386 7.31728 0.491086 9.12545C0.719844 10.9338 1.59707 12.744 2.78813 14.4314C5.1674 17.8023 8.80286 20.6874 11.3353 21.9615V21.9605C11.3363 21.9615 11.3382 21.9624 11.3391 21.9624C11.34 21.9624 11.34 21.9634 11.3419 21.9634V21.9643C11.3514 21.9681 11.3608 21.9709 11.3703 21.9738C11.3939 21.9832 11.4176 21.9917 11.4431 21.9965C11.4771 22.0012 11.513 22.0012 11.548 21.9965C11.5887 21.9898 11.6274 21.9766 11.6633 21.9568C14.1958 20.6816 17.8276 17.7983 20.205 14.4303C21.396 12.7429 22.2723 10.9337 22.5011 9.12533C22.7298 7.31699 22.2884 5.50487 20.8808 3.93676C20.8771 3.93203 20.8723 3.9273 20.8676 3.92352C19.5603 2.61335 18.0177 2.00554 16.4994 2.00082L16.5003 2ZM16.4824 2.66171C17.8171 2.66265 19.1774 3.21565 20.3712 4.4086C21.6464 5.83409 22.0245 7.39576 21.8165 9.03768C21.6076 10.6834 20.79 12.4057 19.6424 14.0327C17.3954 17.2163 13.8885 20.023 11.4979 21.267C9.10725 20.023 5.60027 17.2175 3.35336 14.0327C2.20578 12.4058 1.38811 10.6844 1.1792 9.03865C0.971238 7.39668 1.34841 5.83515 2.62361 4.40957C5.08806 1.94608 8.26325 2.21745 10.4562 4.41524L11.255 5.21401L11.2531 5.21307C11.3589 5.31799 11.5196 5.34352 11.6529 5.2764C11.6851 5.25939 11.7144 5.23859 11.7399 5.21307L12.5387 4.4143C13.6692 3.28184 15.0607 2.65985 16.4814 2.66174L16.4824 2.66171Z" fill="black" stroke="black" stroke-width="0.4"/>
</svg>
